<mxfile host="Electron" modified="2023-04-18T08:15:20.146Z" agent="Mozilla/5.0 (Windows NT 10.0; Win64; x64) AppleWebKit/537.36 (KHTML, like Gecko) draw.io/21.1.2 Chrome/106.0.5249.199 Electron/21.4.3 Safari/537.36" etag="8hfMFPvERFpnVwUz_A10" version="21.1.2" type="device">
  <diagram name="第 1 页" id="06jpO-h5yKouWkRrPgBQ">
    <mxGraphModel dx="1098" dy="988" grid="1" gridSize="10" guides="1" tooltips="1" connect="1" arrows="1" fold="1" page="1" pageScale="1" pageWidth="827" pageHeight="1169" math="0" shadow="0">
      <root>
        <mxCell id="0" />
        <mxCell id="1" parent="0" />
        <mxCell id="UAseURzDCvNOLKoWa4B0-3" style="rounded=0;orthogonalLoop=1;jettySize=auto;html=1;entryX=0;entryY=0.5;entryDx=0;entryDy=0;" edge="1" parent="1" source="UAseURzDCvNOLKoWa4B0-1" target="UAseURzDCvNOLKoWa4B0-2">
          <mxGeometry relative="1" as="geometry">
            <mxPoint x="270" y="490" as="sourcePoint" />
          </mxGeometry>
        </mxCell>
        <mxCell id="UAseURzDCvNOLKoWa4B0-38" style="edgeStyle=none;shape=connector;rounded=0;orthogonalLoop=1;jettySize=auto;html=1;entryX=0.5;entryY=0;entryDx=0;entryDy=0;labelBackgroundColor=default;strokeColor=default;fontFamily=Helvetica;fontSize=11;fontColor=default;endArrow=classic;" edge="1" parent="1" target="UAseURzDCvNOLKoWa4B0-13">
          <mxGeometry relative="1" as="geometry">
            <mxPoint x="250" y="560" as="sourcePoint" />
          </mxGeometry>
        </mxCell>
        <mxCell id="UAseURzDCvNOLKoWa4B0-1" value="用户" style="shape=umlActor;verticalLabelPosition=bottom;verticalAlign=top;html=1;outlineConnect=0;" vertex="1" parent="1">
          <mxGeometry x="235" y="475" width="30" height="60" as="geometry" />
        </mxCell>
        <mxCell id="UAseURzDCvNOLKoWa4B0-5" style="edgeStyle=none;shape=connector;rounded=0;orthogonalLoop=1;jettySize=auto;html=1;labelBackgroundColor=default;strokeColor=default;fontFamily=Helvetica;fontSize=11;fontColor=default;endArrow=classic;" edge="1" parent="1" source="UAseURzDCvNOLKoWa4B0-2" target="UAseURzDCvNOLKoWa4B0-4">
          <mxGeometry relative="1" as="geometry" />
        </mxCell>
        <mxCell id="UAseURzDCvNOLKoWa4B0-2" value="被控端上电" style="ellipse;whiteSpace=wrap;html=1;" vertex="1" parent="1">
          <mxGeometry x="294" y="465" width="120" height="80" as="geometry" />
        </mxCell>
        <mxCell id="UAseURzDCvNOLKoWa4B0-7" value="" style="edgeStyle=none;shape=connector;rounded=0;orthogonalLoop=1;jettySize=auto;html=1;labelBackgroundColor=default;strokeColor=default;fontFamily=Helvetica;fontSize=11;fontColor=default;endArrow=classic;" edge="1" parent="1" source="UAseURzDCvNOLKoWa4B0-4" target="UAseURzDCvNOLKoWa4B0-6">
          <mxGeometry relative="1" as="geometry" />
        </mxCell>
        <mxCell id="UAseURzDCvNOLKoWa4B0-10" value="" style="edgeStyle=none;shape=connector;rounded=0;orthogonalLoop=1;jettySize=auto;html=1;labelBackgroundColor=default;strokeColor=default;fontFamily=Helvetica;fontSize=11;fontColor=default;endArrow=classic;" edge="1" parent="1" source="UAseURzDCvNOLKoWa4B0-4" target="UAseURzDCvNOLKoWa4B0-6">
          <mxGeometry relative="1" as="geometry" />
        </mxCell>
        <mxCell id="UAseURzDCvNOLKoWa4B0-12" style="edgeStyle=none;shape=connector;rounded=0;orthogonalLoop=1;jettySize=auto;html=1;labelBackgroundColor=default;strokeColor=default;fontFamily=Helvetica;fontSize=11;fontColor=default;endArrow=classic;entryX=1;entryY=0;entryDx=0;entryDy=0;" edge="1" parent="1" source="UAseURzDCvNOLKoWa4B0-4" target="UAseURzDCvNOLKoWa4B0-11">
          <mxGeometry relative="1" as="geometry">
            <mxPoint x="420" y="630" as="targetPoint" />
          </mxGeometry>
        </mxCell>
        <mxCell id="UAseURzDCvNOLKoWa4B0-4" value="读取板载WIFI连接信息" style="ellipse;whiteSpace=wrap;html=1;fontFamily=Helvetica;fontSize=11;fontColor=default;" vertex="1" parent="1">
          <mxGeometry x="390" y="545" width="120" height="80" as="geometry" />
        </mxCell>
        <mxCell id="UAseURzDCvNOLKoWa4B0-17" style="edgeStyle=none;shape=connector;rounded=0;orthogonalLoop=1;jettySize=auto;html=1;entryX=0.785;entryY=0.088;entryDx=0;entryDy=0;labelBackgroundColor=default;strokeColor=default;fontFamily=Helvetica;fontSize=11;fontColor=default;endArrow=classic;entryPerimeter=0;" edge="1" parent="1" source="UAseURzDCvNOLKoWa4B0-6" target="UAseURzDCvNOLKoWa4B0-16">
          <mxGeometry relative="1" as="geometry" />
        </mxCell>
        <mxCell id="UAseURzDCvNOLKoWa4B0-6" value="找到保存信息连接WIFI" style="ellipse;whiteSpace=wrap;html=1;fontFamily=Helvetica;fontSize=11;fontColor=default;" vertex="1" parent="1">
          <mxGeometry x="390" y="690" width="120" height="80" as="geometry" />
        </mxCell>
        <mxCell id="UAseURzDCvNOLKoWa4B0-15" style="edgeStyle=none;shape=connector;rounded=0;orthogonalLoop=1;jettySize=auto;html=1;exitX=0;exitY=1;exitDx=0;exitDy=0;entryX=1;entryY=0;entryDx=0;entryDy=0;labelBackgroundColor=default;strokeColor=default;fontFamily=Helvetica;fontSize=11;fontColor=default;endArrow=classic;" edge="1" parent="1" source="UAseURzDCvNOLKoWa4B0-11" target="UAseURzDCvNOLKoWa4B0-13">
          <mxGeometry relative="1" as="geometry" />
        </mxCell>
        <mxCell id="UAseURzDCvNOLKoWa4B0-11" value="未找到保存信息，进入AP模式，等待配网" style="ellipse;whiteSpace=wrap;html=1;fontFamily=Helvetica;fontSize=11;fontColor=default;" vertex="1" parent="1">
          <mxGeometry x="294" y="625" width="120" height="80" as="geometry" />
        </mxCell>
        <mxCell id="UAseURzDCvNOLKoWa4B0-18" style="edgeStyle=none;shape=connector;rounded=0;orthogonalLoop=1;jettySize=auto;html=1;labelBackgroundColor=default;strokeColor=default;fontFamily=Helvetica;fontSize=11;fontColor=default;endArrow=classic;" edge="1" parent="1" source="UAseURzDCvNOLKoWa4B0-13" target="UAseURzDCvNOLKoWa4B0-16">
          <mxGeometry relative="1" as="geometry" />
        </mxCell>
        <mxCell id="UAseURzDCvNOLKoWa4B0-13" value="用户配网" style="ellipse;whiteSpace=wrap;html=1;fontFamily=Helvetica;fontSize=11;fontColor=default;" vertex="1" parent="1">
          <mxGeometry x="190" y="690" width="120" height="80" as="geometry" />
        </mxCell>
        <mxCell id="UAseURzDCvNOLKoWa4B0-20" style="edgeStyle=none;shape=connector;rounded=0;orthogonalLoop=1;jettySize=auto;html=1;exitX=1;exitY=0.5;exitDx=0;exitDy=0;entryX=0;entryY=0.5;entryDx=0;entryDy=0;labelBackgroundColor=default;strokeColor=default;fontFamily=Helvetica;fontSize=11;fontColor=default;endArrow=classic;" edge="1" parent="1" source="UAseURzDCvNOLKoWa4B0-16" target="UAseURzDCvNOLKoWa4B0-19">
          <mxGeometry relative="1" as="geometry" />
        </mxCell>
        <mxCell id="UAseURzDCvNOLKoWa4B0-16" value="启动主程序，初始化配置" style="ellipse;whiteSpace=wrap;html=1;fontFamily=Helvetica;fontSize=11;fontColor=default;" vertex="1" parent="1">
          <mxGeometry x="190" y="800" width="120" height="80" as="geometry" />
        </mxCell>
        <mxCell id="UAseURzDCvNOLKoWa4B0-25" style="edgeStyle=none;shape=connector;rounded=0;orthogonalLoop=1;jettySize=auto;html=1;labelBackgroundColor=default;strokeColor=default;fontFamily=Helvetica;fontSize=11;fontColor=default;endArrow=classic;" edge="1" parent="1" source="UAseURzDCvNOLKoWa4B0-19" target="UAseURzDCvNOLKoWa4B0-21">
          <mxGeometry relative="1" as="geometry" />
        </mxCell>
        <mxCell id="UAseURzDCvNOLKoWa4B0-19" value="侦听TCP和UDP请求" style="ellipse;whiteSpace=wrap;html=1;fontFamily=Helvetica;fontSize=11;fontColor=default;" vertex="1" parent="1">
          <mxGeometry x="390" y="800" width="120" height="80" as="geometry" />
        </mxCell>
        <mxCell id="UAseURzDCvNOLKoWa4B0-34" style="edgeStyle=none;shape=connector;rounded=0;orthogonalLoop=1;jettySize=auto;html=1;entryX=0.5;entryY=0;entryDx=0;entryDy=0;labelBackgroundColor=default;strokeColor=default;fontFamily=Helvetica;fontSize=11;fontColor=default;endArrow=classic;" edge="1" parent="1" source="UAseURzDCvNOLKoWa4B0-21" target="UAseURzDCvNOLKoWa4B0-33">
          <mxGeometry relative="1" as="geometry" />
        </mxCell>
        <mxCell id="UAseURzDCvNOLKoWa4B0-21" value="收到请求并处理" style="ellipse;whiteSpace=wrap;html=1;fontFamily=Helvetica;fontSize=11;fontColor=default;" vertex="1" parent="1">
          <mxGeometry x="390" y="900" width="120" height="80" as="geometry" />
        </mxCell>
        <mxCell id="UAseURzDCvNOLKoWa4B0-26" style="edgeStyle=none;shape=connector;rounded=0;orthogonalLoop=1;jettySize=auto;html=1;labelBackgroundColor=default;strokeColor=default;fontFamily=Helvetica;fontSize=11;fontColor=default;endArrow=classic;entryX=0;entryY=0.5;entryDx=0;entryDy=0;" edge="1" parent="1" target="UAseURzDCvNOLKoWa4B0-21">
          <mxGeometry relative="1" as="geometry">
            <mxPoint x="270" y="940" as="sourcePoint" />
            <mxPoint x="320" y="940" as="targetPoint" />
          </mxGeometry>
        </mxCell>
        <mxCell id="UAseURzDCvNOLKoWa4B0-39" style="edgeStyle=none;shape=connector;rounded=0;orthogonalLoop=1;jettySize=auto;html=1;entryX=0.5;entryY=1;entryDx=0;entryDy=0;labelBackgroundColor=default;strokeColor=default;fontFamily=Helvetica;fontSize=11;fontColor=default;endArrow=classic;" edge="1" parent="1" target="UAseURzDCvNOLKoWa4B0-30">
          <mxGeometry relative="1" as="geometry">
            <mxPoint x="250" y="1000" as="sourcePoint" />
          </mxGeometry>
        </mxCell>
        <mxCell id="UAseURzDCvNOLKoWa4B0-22" value="主控端系统" style="shape=umlActor;verticalLabelPosition=bottom;verticalAlign=top;html=1;outlineConnect=0;fontFamily=Helvetica;fontSize=11;fontColor=default;" vertex="1" parent="1">
          <mxGeometry x="235" y="1010" width="30" height="60" as="geometry" />
        </mxCell>
        <mxCell id="UAseURzDCvNOLKoWa4B0-30" value="发送控制命令或请求" style="ellipse;whiteSpace=wrap;html=1;fontFamily=Helvetica;fontSize=11;fontColor=default;" vertex="1" parent="1">
          <mxGeometry x="190" y="900" width="120" height="80" as="geometry" />
        </mxCell>
        <mxCell id="UAseURzDCvNOLKoWa4B0-35" style="edgeStyle=none;shape=connector;rounded=0;orthogonalLoop=1;jettySize=auto;html=1;labelBackgroundColor=default;strokeColor=default;fontFamily=Helvetica;fontSize=11;fontColor=default;endArrow=classic;" edge="1" parent="1" source="UAseURzDCvNOLKoWa4B0-33">
          <mxGeometry relative="1" as="geometry">
            <mxPoint x="270" y="1040" as="targetPoint" />
          </mxGeometry>
        </mxCell>
        <mxCell id="UAseURzDCvNOLKoWa4B0-33" value="回复或发送请求" style="ellipse;whiteSpace=wrap;html=1;fontFamily=Helvetica;fontSize=11;fontColor=default;" vertex="1" parent="1">
          <mxGeometry x="390" y="1000" width="120" height="80" as="geometry" />
        </mxCell>
      </root>
    </mxGraphModel>
  </diagram>
</mxfile>
